<svg xmlns="http://www.w3.org/2000/svg" viewBox="0 0 69.36 87.69"><defs><style>.cls-1{fill:#878787;}.cls-2{fill:#fff;}.cls-3{fill:#146c4c;}.cls-4{fill:#4aa07c;}</style></defs><g id="Livello_2" data-name="Livello 2"><g id="Livello_1-2" data-name="Livello 1"><path class="cls-1" d="M36.68,54v6.07l-.27.07L34.92,57V83.75l1.76,3.82,13.47.12V56.14a9.46,9.46,0,0,0-5-1.64L36.68,54m0-37.45V41l7.38.66c.52,0,1,.07,1.51.07a9.66,9.66,0,0,0,4.58-1V35.38H36.68V16.53M11.47,7.6,0,9.51V87.24l11.47.1V33.61l.24-.08,9.69,21v-26L11.47,7.6"/><path class="cls-2" d="M21.4,54.49v33.2l13.52-.12V83.75L21.4,54.49M50.15,6.35V20.07a9.76,9.76,0,0,1,1.69,1.87,15.68,15.68,0,0,1,2.52,9.17q0,5.67-2.5,8.32a6.45,6.45,0,0,1-1.71,1.3V56.14a9,9,0,0,1,2.15,2.17q2.48,3.49,2.48,9.54v5.72a68.32,68.32,0,0,0,.47,7.94q.48,4.11,2.12,5.86l12-.1V86.14a10.67,10.67,0,0,1-2.2-5.31,39.16,39.16,0,0,1-.65-6.9V68.14a29.22,29.22,0,0,0-2.23-12,14.86,14.86,0,0,0-7.49-7.47,16.31,16.31,0,0,0,7-6.63,20.57,20.57,0,0,0,2.36-10.26c0-7.32-1.85-13.3-5.6-18a23.39,23.39,0,0,0-10.41-7.4M21.4,0V28.5L34.92,57v-3.1l1.76.11V41l-1.76-.15V16.28l1.76.25V3.39l.39-.09L21.4,0"/><path class="cls-2" d="M50.15,40.73a9.66,9.66,0,0,1-4.58,1c-.49,0-1,0-1.51-.07L36.68,41V54l8.46.52a9.46,9.46,0,0,1,5,1.64V40.73M21.4,28.5v26L34.92,83.75V57L21.4,28.5"/><path class="cls-1" d="M50.15.15,37.07,3.3l7.21,1.51a32.1,32.1,0,0,1,5.87,1.54V.15"/><polyline class="cls-3" points="50.15 20.07 50.15 35.38 50.15 35.38 50.15 20.07 50.15 20.07"/><path class="cls-1" d="M36.68,16.53V35.38H50.15V20.07a11.14,11.14,0,0,0-5.87-2.48l-7.6-1.06"/><path class="cls-4" d="M50.15,6.35V20.07h0V6.35h0m-13.08-3-.39.09.39-.09h0"/><path class="cls-1" d="M37.07,3.3l-.39.09V16.53l7.6,1.06a11.14,11.14,0,0,1,5.87,2.48V6.35a32.1,32.1,0,0,0-5.87-1.54L37.07,3.3"/></g></g></svg>