<?xml version="1.0" encoding="utf-8"?>
<!-- Generator: Adobe Illustrator 25.4.0, SVG Export Plug-In . SVG Version: 6.00 Build 0)  -->
<svg version="1.1" id="Livello_1" xmlns="http://www.w3.org/2000/svg" xmlns:xlink="http://www.w3.org/1999/xlink" x="0px" y="0px"
	 viewBox="0 0 56 56" style="enable-background:new 0 0 56 56;" xml:space="preserve">
<style type="text/css">
	.st0{fill:none;}
</style>
<path class="st0" d="M28,5.2c-6.2,0-7,0-9.4,0.1c-2.4,0.1-4.1,0.5-5.5,1C11.5,7,10.3,7.8,9,9S7,11.6,6.4,13c-0.6,1.5-0.9,3.1-1,5.5
	C5.2,21,5.2,21.8,5.2,28s0,7,0.1,9.4s0.5,4.1,1.1,5.5c0.6,1.5,1.4,2.8,2.6,4c1.3,1.3,2.5,2.1,4,2.6c1.5,0.6,3.1,1,5.5,1.1
	s3.2,0.1,9.4,0.1s7,0,9.4-0.1s4.1-0.5,5.5-1.1c1.5-0.6,2.8-1.4,4-2.6c1.3-1.3,2.1-2.5,2.6-4c0.6-1.5,1-3.1,1.1-5.5
	c0.1-2.4,0.1-3.2,0.1-9.4s0-7-0.1-9.4c-0.1-2.4-0.5-4.1-1.1-5.5c-0.6-1.5-1.4-2.8-2.6-4c-1.3-1.3-2.5-2.1-4-2.6
	c-1.5-0.6-3.1-1-5.5-1.1C34.9,5.2,34.2,5.2,28,5.2z M28,9.3c6.1,0,6.8,0,9.2,0.1c2.2,0.1,3.4,0.5,4.2,0.8c1.1,0.4,1.8,0.9,2.6,1.7
	c0.8,0.8,1.3,1.6,1.7,2.6c0.3,0.8,0.7,2,0.8,4.2c0.1,2.4,0.1,3.1,0.1,9.2s0,6.8-0.1,9.2c-0.1,2.2-0.5,3.4-0.8,4.2
	c-0.4,1.1-0.9,1.8-1.7,2.6c-0.8,0.8-1.6,1.3-2.6,1.7c-0.8,0.3-2,0.7-4.2,0.8c-2.4,0.1-3.1,0.1-9.2,0.1s-6.8,0-9.2-0.1
	c-2.2-0.1-3.4-0.5-4.2-0.8c-1.1-0.4-1.8-0.9-2.6-1.7c-0.8-0.8-1.3-1.6-1.7-2.6c-0.3-0.8-0.7-2-0.8-4.2c-0.1-2.4-0.1-3.1-0.1-9.2
	s0-6.8,0.1-9.2c0.1-2.2,0.5-3.5,0.8-4.2c0.4-1.1,0.9-1.8,1.7-2.6c0.8-0.8,1.6-1.3,2.6-1.7c0.8-0.3,2-0.7,4.2-0.8
	C21.2,9.3,21.9,9.3,28,9.3"/>
<path class="st0" d="M28,35.6c-4.2,0-7.6-3.4-7.6-7.6s3.4-7.6,7.6-7.6s7.6,3.4,7.6,7.6S32.2,35.6,28,35.6z M28,16.3
	c-6.5,0-11.7,5.2-11.7,11.7S21.5,39.7,28,39.7S39.7,34.4,39.7,28S34.5,16.3,28,16.3 M42.9,15.8c0,1.5-1.2,2.7-2.7,2.7
	s-2.7-1.2-2.7-2.7s1.2-2.7,2.7-2.7S42.9,14.3,42.9,15.8"/>
</svg>
