<?xml version="1.0" encoding="utf-8"?>
<!-- Generator: Adobe Illustrator 25.4.0, SVG Export Plug-In . SVG Version: 6.00 Build 0)  -->
<svg version="1.1" id="Livello_1" xmlns="http://www.w3.org/2000/svg" xmlns:xlink="http://www.w3.org/1999/xlink" x="0px" y="0px"
	 viewBox="0 0 32 32" style="enable-background:new 0 0 32 32;" xml:space="preserve" stroke-width="2" stroke="currentColor" fill="none" stroke-linecap="round" stroke-linejoin="round">
<style type="text/css">
	.st0{fill:none;stroke:#000000;stroke-width:0.25;stroke-miterlimit:10;}
</style>
<g>
	<path class="st0" d="M16,1.22c-4.01,0-4.52,0.02-6.09,0.09C8.33,1.38,7.26,1.63,6.32,1.99C5.34,2.37,4.52,2.88,3.7,3.7
		C2.88,4.52,2.37,5.34,1.99,6.32C1.63,7.26,1.38,8.33,1.31,9.91C1.23,11.48,1.22,11.99,1.22,16c0,4.01,0.02,4.52,0.09,6.09
		c0.07,1.57,0.32,2.65,0.69,3.59c0.38,0.97,0.88,1.8,1.71,2.62c0.82,0.82,1.65,1.33,2.62,1.71c0.94,0.37,2.01,0.62,3.59,0.69
		c1.58,0.07,2.08,0.09,6.09,0.09c4.01,0,4.52-0.02,6.09-0.09c1.57-0.07,2.65-0.32,3.59-0.69c0.97-0.38,1.8-0.88,2.62-1.71
		c0.82-0.82,1.33-1.65,1.71-2.62c0.37-0.94,0.62-2.01,0.69-3.59c0.07-1.58,0.09-2.08,0.09-6.09c0-4.01-0.02-4.52-0.09-6.09
		c-0.07-1.57-0.32-2.65-0.69-3.59c-0.38-0.97-0.88-1.8-1.71-2.62c-0.82-0.82-1.65-1.33-2.62-1.71c-0.94-0.37-2.01-0.62-3.59-0.69
		C20.52,1.23,20.01,1.22,16,1.22z M16,3.88c3.95,0,4.41,0.02,5.97,0.09c1.44,0.07,2.22,0.31,2.74,0.51c0.69,0.27,1.18,0.59,1.7,1.11
		c0.52,0.52,0.84,1.01,1.11,1.7c0.2,0.52,0.44,1.3,0.51,2.74c0.07,1.56,0.09,2.03,0.09,5.97s-0.02,4.41-0.09,5.97
		c-0.07,1.44-0.31,2.22-0.51,2.74c-0.27,0.69-0.59,1.18-1.11,1.7c-0.52,0.52-1.01,0.84-1.7,1.11c-0.52,0.2-1.3,0.44-2.74,0.51
		c-1.56,0.07-2.03,0.09-5.97,0.09s-4.41-0.02-5.97-0.09c-1.44-0.07-2.22-0.31-2.74-0.51c-0.69-0.27-1.18-0.59-1.7-1.11
		c-0.52-0.52-0.84-1.01-1.11-1.7c-0.2-0.52-0.44-1.3-0.51-2.74C3.9,20.41,3.88,19.95,3.88,16s0.02-4.41,0.09-5.97
		C4.03,8.59,4.27,7.8,4.48,7.28c0.27-0.69,0.59-1.18,1.11-1.7c0.52-0.52,1.01-0.84,1.7-1.11c0.52-0.2,1.3-0.44,2.74-0.51
		C11.59,3.9,12.05,3.88,16,3.88"/>
	<path class="st0" d="M16,20.93c-2.72,0-4.93-2.21-4.93-4.93c0-2.72,2.21-4.93,4.93-4.93c2.72,0,4.93,2.21,4.93,4.93
		C20.93,18.72,18.72,20.93,16,20.93z M16,8.41c-4.19,0-7.59,3.4-7.59,7.59c0,4.19,3.4,7.59,7.59,7.59c4.19,0,7.59-3.4,7.59-7.59
		C23.59,11.81,20.19,8.41,16,8.41 M25.66,8.11c0,0.98-0.79,1.77-1.77,1.77c-0.98,0-1.77-0.79-1.77-1.77c0-0.98,0.79-1.77,1.77-1.77
		C24.87,6.34,25.66,7.13,25.66,8.11"/>
</g>
</svg>
