<?xml version="1.0" encoding="UTF-8"?>
<svg id="Capa_1" data-name="Capa 1" xmlns="http://www.w3.org/2000/svg" version="1.1" viewBox="0 0 24 24">
  <defs>
    <style>
      .cls-1 {
        fill: none;
        stroke: #000;
        stroke-miterlimit: 10;
      }
    </style>
  </defs>
  <path id="Path_2520" data-name="Path 2520" class="cls-1" d="M18.3,18.3h-2.7v-4.2c0-1,0-2.3-1.4-2.3s-1.6,1.1-1.6,2.2v4.2h-2.7v-8.6h2.6v1.2h0c.5-.9,1.5-1.4,2.5-1.4,2.7,0,3.2,1.8,3.2,4.1v4.7ZM7,8.6c-.9,0-1.5-.7-1.5-1.5s.7-1.5,1.5-1.5,1.5.7,1.5,1.5c0,.9-.7,1.5-1.5,1.5h0M8.3,18.3h-2.7v-8.6h2.7v8.6ZM19.7,3H4.3c-.7,0-1.3.6-1.3,1.3v15.4c0,.7.6,1.3,1.3,1.3h15.3c.7,0,1.3-.6,1.3-1.3V4.3c0-.7-.6-1.3-1.3-1.3"/>
</svg>