<?xml version="1.0" encoding="utf-8"?>
<!-- Generator: Adobe Illustrator 25.4.0, SVG Export Plug-In . SVG Version: 6.00 Build 0)  -->
<svg version="1.1" id="Livello_1" xmlns="http://www.w3.org/2000/svg" xmlns:xlink="http://www.w3.org/1999/xlink" x="0px" y="0px"
	 viewBox="0 0 24 24" style="enable-background:new 0 0 24 24;" xml:space="preserve">
<style type="text/css">
	.st0{fill:none;}
	.st1{fill:none;stroke:#000000;stroke-width:2;stroke-linecap:round;stroke-linejoin:round;}
</style>
<path class="st0" d="M0,0h24v24H0V0z"/>
<g>
	<path class="st1" d="M11.99,1.05c-2.97,0-3.35,0.01-4.51,0.07c-1.17,0.05-1.96,0.24-2.66,0.5C4.09,1.9,3.49,2.28,2.88,2.88
		S1.89,4.1,1.61,4.82c-0.27,0.7-0.45,1.49-0.5,2.66C1.05,8.65,1.04,9.03,1.04,12s0.01,3.35,0.07,4.51s0.24,1.96,0.51,2.66
		c0.28,0.72,0.65,1.33,1.27,1.94c0.61,0.61,1.22,0.99,1.94,1.27c0.7,0.27,1.49,0.46,2.66,0.51s1.54,0.07,4.51,0.07
		s3.35-0.01,4.51-0.07s1.96-0.24,2.66-0.51c0.72-0.28,1.33-0.65,1.94-1.27c0.61-0.61,0.99-1.22,1.27-1.94
		c0.27-0.7,0.46-1.49,0.51-2.66c0.05-1.17,0.07-1.54,0.07-4.51s-0.01-3.35-0.07-4.51c-0.05-1.16-0.24-1.96-0.51-2.66
		c-0.28-0.72-0.65-1.33-1.27-1.94c-0.61-0.61-1.22-0.99-1.94-1.27c-0.7-0.27-1.49-0.46-2.66-0.51C15.34,1.05,14.96,1.05,11.99,1.05z
		 M11.99,3.02c2.93,0,3.27,0.01,4.42,0.07c1.07,0.05,1.64,0.23,2.03,0.38c0.51,0.2,0.87,0.44,1.26,0.82s0.62,0.75,0.82,1.26
		c0.15,0.39,0.33,0.96,0.38,2.03c0.05,1.16,0.07,1.5,0.07,4.42s-0.01,3.27-0.07,4.42c-0.05,1.07-0.23,1.64-0.38,2.03
		c-0.2,0.51-0.44,0.87-0.82,1.26s-0.75,0.62-1.26,0.82c-0.39,0.15-0.96,0.33-2.03,0.38c-1.16,0.05-1.5,0.07-4.42,0.07
		s-3.27-0.01-4.42-0.07c-1.07-0.05-1.64-0.23-2.03-0.38c-0.51-0.2-0.87-0.44-1.26-0.82s-0.62-0.75-0.82-1.26
		c-0.15-0.39-0.33-0.96-0.38-2.03c-0.05-1.16-0.07-1.5-0.07-4.42s0.01-3.27,0.07-4.42C3.12,6.51,3.3,5.92,3.46,5.54
		c0.2-0.51,0.44-0.87,0.82-1.26c0.39-0.39,0.75-0.62,1.26-0.82C5.92,3.31,6.5,3.13,7.57,3.08C8.73,3.03,9.07,3.02,11.99,3.02"/>
	<path class="st1" d="M11.99,15.65c-2.02,0-3.65-1.64-3.65-3.65s1.64-3.65,3.65-3.65s3.65,1.64,3.65,3.65S14.01,15.65,11.99,15.65z
		 M11.99,6.37c-3.1,0-5.62,2.52-5.62,5.62s2.52,5.62,5.62,5.62s5.62-2.52,5.62-5.62S15.1,6.37,11.99,6.37 M19.15,6.15
		c0,0.73-0.59,1.31-1.31,1.31s-1.31-0.59-1.31-1.31s0.59-1.31,1.31-1.31C18.56,4.84,19.15,5.42,19.15,6.15"/>
</g>
</svg>
